<svg width="40" height="40" viewBox="0 0 690 640" fill="none" xmlns="http://www.w3.org/2000/svg">
<path d="M57.5 46.5H688.5V638.5H57.5V46.5Z" stroke="white" stroke-width="3"/>
<path d="M0 0H646V588H0V0Z" fill="white"/>
<path d="M116.326 216.312V207.416H107.43V198.52H98.5337V154.04H107.43V145.144H116.326V136.248H151.91V145.144H160.806V207.416H151.91V216.312H116.326ZM98.5337 243V225.208H107.43V234.104H116.326V243H151.91V234.104H169.702V225.208H178.598V207.416H187.494V145.144H178.598V127.352H169.702V118.456H151.91V109.56H116.326V118.456H107.43V127.352H98.5337V65.08H71.8457V243H98.5337ZM80.7417 234.104V73.976H89.6377V136.248H98.5337V145.144H89.6377V207.416H98.5337V216.312H89.6377V234.104H80.7417ZM169.702 198.52V154.04H178.598V198.52H169.702ZM125.222 127.352V118.456H143.014V127.352H125.222ZM125.222 225.208H143.014V234.104H125.222V225.208ZM107.43 216.312H116.326V225.208H107.43V216.312ZM116.326 127.352V136.248H107.43V127.352H116.326Z" fill="black"/>
<path d="M237.469 91.768V65.08H210.781V91.768H237.469ZM237.469 243V109.56H210.781V243H237.469ZM219.677 234.104V118.456H228.573V234.104H219.677ZM219.677 82.872V73.976H228.573V82.872H219.677Z" fill="black"/>
<path d="M306.667 243V136.248H342.251V109.56H306.667V73.976H279.979V109.56H262.187V136.248H279.979V243H306.667ZM288.875 234.104V127.352H271.083V118.456H288.875V82.872H297.771V118.456H333.355V127.352H297.771V234.104H288.875Z" fill="black"/>
<path d="M116.326 468.312V459.416H107.43V450.52H98.5337V406.04H107.43V397.144H116.326V388.248H151.91V397.144H160.806V459.416H151.91V468.312H116.326ZM98.5337 495V477.208H107.43V486.104H116.326V495H151.91V486.104H169.702V477.208H178.598V459.416H187.494V397.144H178.598V379.352H169.702V370.456H151.91V361.56H116.326V370.456H107.43V379.352H98.5337V317.08H71.8457V495H98.5337ZM80.7417 486.104V325.976H89.6377V388.248H98.5337V397.144H89.6377V459.416H98.5337V468.312H89.6377V486.104H80.7417ZM169.702 450.52V406.04H178.598V450.52H169.702ZM125.222 379.352V370.456H143.014V379.352H125.222ZM125.222 477.208H143.014V486.104H125.222V477.208ZM107.43 468.312H116.326V477.208H107.43V468.312ZM116.326 379.352V388.248H107.43V379.352H116.326Z" fill="black"/>
<path d="M258.875 548.376V521.688H267.771V495H276.667V468.312H285.563V441.624H294.459V414.936H303.355V388.248H312.251V361.56H285.563V388.248H276.667V414.936H267.771V450.52H258.875V441.624H249.979V414.936H241.083V388.248H232.187V361.56H205.499V388.248H214.395V414.936H223.291V441.624H232.187V459.416H241.083V477.208H249.979V495H241.083V521.688H232.187V548.376H258.875ZM258.875 486.104V468.312H249.979V459.416H267.771V486.104H258.875ZM241.083 539.48V530.584H249.979V539.48H241.083ZM223.291 379.352H214.395V370.456H223.291V379.352ZM232.187 406.04H223.291V397.144H232.187V406.04ZM241.083 432.728H232.187V423.832H241.083V432.728ZM294.459 379.352V370.456H303.355V379.352H294.459ZM285.563 406.04V397.144H294.459V406.04H285.563ZM276.667 432.728V423.832H285.563V432.728H276.667ZM249.979 512.792V503.896H258.875V512.792H249.979Z" fill="black"/>
<path d="M375.624 495V388.248H411.208V361.56H375.624V325.976H348.936V361.56H331.144V388.248H348.936V495H375.624ZM357.832 486.104V379.352H340.04V370.456H357.832V334.872H366.728V370.456H402.312V379.352H366.728V486.104H357.832Z" fill="black"/>
<path d="M444.655 414.936V397.144H453.551V388.248H489.135V397.144H498.031V414.936H444.655ZM489.135 495V486.104H506.927V477.208H515.823V468.312H524.719V450.52H498.031V459.416H489.135V468.312H453.551V459.416H444.655V432.728H524.719V397.144H515.823V379.352H506.927V370.456H489.135V361.56H453.551V370.456H435.759V379.352H426.863V397.144H417.967V459.416H426.863V477.208H435.759V486.104H453.551V495H489.135ZM426.863 450.52V406.04H435.759V450.52H426.863ZM480.239 379.352H462.447V370.456H480.239V379.352ZM506.927 423.832V406.04H515.823V423.832H506.927ZM462.447 486.104V477.208H480.239V486.104H462.447Z" fill="black"/>
</svg>
